<svg height="512pt" viewBox="0 0 512 512" width="512pt" xmlns="http://www.w3.org/2000/svg"><path d="m512 16.015625v57.425781c0 8.839844-7.175781 16.011719-16.015625 16.011719s-16.011719-7.171875-16.011719-16.011719v-41.414062h-41.414062c-8.839844 0-16.011719-7.171875-16.011719-16.011719s7.171875-16.015625 16.011719-16.015625h57.425781c4.421875 0 8.425781 1.792969 11.328125 4.6875 2.894531 2.902344 4.6875 6.90625 4.6875 11.328125zm0 0" fill="#00ee8a"/><path d="m512 16.015625v57.425781c0 8.839844-7.175781 16.011719-16.015625 16.011719s-16.011719-7.171875-16.011719-16.011719v-41.414062l27.339844-27.339844c2.894531 2.902344 4.6875 6.90625 4.6875 11.328125zm0 0" fill="#00dd80"/><path d="m73.441406 0h-57.425781c-8.84375 0-16.015625 7.171875-16.015625 16.015625v57.425781c0 8.84375 7.171875 16.011719 16.015625 16.011719s16.011719-7.167969 16.011719-16.011719v-41.414062h41.414062c8.84375 0 16.011719-7.167969 16.011719-16.011719s-7.167969-16.015625-16.011719-16.015625zm0 0" fill="#00ee8a"/><path d="m89.453125 495.984375c0 8.839844-7.171875 16.015625-16.011719 16.015625h-57.425781c-4.421875 0-8.425781-1.792969-11.328125-4.6875-2.894531-2.902344-4.6875-6.90625-4.6875-11.328125v-57.425781c0-8.839844 7.175781-16.011719 16.015625-16.011719s16.011719 7.171875 16.011719 16.011719v41.414062h41.414062c8.839844 0 16.011719 7.171875 16.011719 16.011719zm0 0" fill="#00ee8a"/><path d="m89.453125 495.984375c0 8.839844-7.171875 16.015625-16.011719 16.015625h-57.425781c-4.421875 0-8.425781-1.792969-11.328125-4.6875l27.339844-27.339844h41.414062c8.839844 0 16.011719 7.171875 16.011719 16.011719zm0 0" fill="#00dd80"/><path d="m495.984375 422.546875c-8.84375 0-16.011719 7.167969-16.011719 16.011719v41.414062h-41.414062c-8.84375 0-16.011719 7.167969-16.011719 16.011719s7.167969 16.015625 16.011719 16.015625h57.425781c8.84375 0 16.015625-7.171875 16.015625-16.015625v-57.425781c0-8.84375-7.171875-16.011719-16.015625-16.011719zm0 0" fill="#00dd80"/><path d="m256 407.085938c-48.371094 0-92.199219-19.644532-123.960938-51.351563-31.792968-31.769531-51.476562-75.660156-51.476562-124.097656 0-99.816407 82.777344-178.132813 179.964844-175.375 10.257812.257812 14.101562 13.398437 5.765625 19.355469-52.339844 37.433593-59.101563 112.910156-13.015625 158.890624 45.628906 45.550782 121.070312 39.550782 158.742187-13.152343 5.96875-8.347657 19.109375-4.492188 19.367188 5.753906 2.761719 97.320313-75.710938 179.976563-175.386719 179.976563zm0 0" fill="#ffde55"/><path d="m256 407.085938c-48.371094 0-92.199219-19.644532-123.960938-51.351563l121.238282-121.226563c45.628906 45.550782 121.070312 39.550782 158.742187-13.152343 5.96875-8.347657 19.109375-4.492188 19.367188 5.753906 2.761719 97.320313-75.710938 179.976563-175.386719 179.976563zm0 0" fill="#ffcd00"/><path d="m252.101562 374.097656v65.691406c0 8.839844-7.171874 16.011719-16.011718 16.011719h-97.867188c-8.839844 0-16.015625-7.171875-16.015625-16.011719v-65.691406c0-13.941406 7.710938-26.730468 20.019531-33.253906l17.125-9.054688c-8.679687-7.6875-14.148437-18.894531-14.148437-31.398437 0-23.164063 18.78125-41.945313 41.949219-41.945313 1 0 1.996094.03125 3.007812.105469 20.785156 1.441407 37.558594 18.355469 38.863282 39.152344.839843 13.566406-4.773438 25.855469-14.0625 34.085937l17.113281 9.054688c12.320312 6.523438 20.027343 19.3125 20.027343 33.253906zm0 0" fill="#2682ff"/><path d="m252.101562 374.097656v65.691406c0 8.839844-7.171874 16.011719-16.011718 16.011719h-48.9375v-197.355469c1 0 1.996094.03125 3.007812.105469 20.785156 1.441407 37.558594 18.351563 38.863282 39.148438.839843 13.570312-4.773438 25.859375-14.0625 34.089843l17.113281 9.050782c12.320312 6.527344 20.027343 19.316406 20.027343 33.257812zm0 0" fill="#046eff"/></svg>